<svg width="464" height="464" viewBox="0 0 464 464" fill="none" xmlns="http://www.w3.org/2000/svg">
<path d="M206.339 53.0365C224.331 42.649 246.498 42.649 264.489 53.0365L378.82 119.046C396.812 129.433 407.896 148.63 407.896 169.405V301.423C407.896 322.198 396.812 341.395 378.82 351.783L264.489 417.792C246.498 428.179 224.331 428.18 206.339 417.792L92.008 351.783C74.0163 341.395 62.933 322.198 62.933 301.423V169.405C62.933 148.63 74.0163 129.433 92.008 119.046L206.339 53.0365Z" fill="#3079FF"/>
<path d="M304.499 227.972C304.527 238.604 302.043 249.093 297.249 258.583C291.566 269.955 282.828 279.521 272.015 286.208C261.202 292.895 248.741 296.439 236.027 296.444C225.395 296.472 214.907 293.988 205.416 289.194L159.5 304.5L174.805 258.583C170.012 249.093 167.528 238.604 167.556 227.972C167.56 215.259 171.105 202.797 177.792 191.985C184.479 181.172 194.044 172.434 205.416 166.75C214.907 161.957 225.395 159.473 236.027 159.5H240.055C256.846 160.427 272.705 167.514 284.595 179.404C296.486 191.295 303.573 207.154 304.499 223.944V227.972Z" stroke="white" stroke-width="21.75" stroke-linecap="round" stroke-linejoin="round"/>
</svg>
